<mxfile host="app.diagrams.net" agent="Mozilla/5.0 (Macintosh; Intel Mac OS X 10.15; rv:138.0) Gecko/20100101 Firefox/138.0" version="26.3.0">
  <diagram name="Page-1" id="982gyeF62y9UsF95akiq">
    <mxGraphModel dx="894" dy="627" grid="1" gridSize="10" guides="1" tooltips="1" connect="1" arrows="1" fold="1" page="1" pageScale="1" pageWidth="730" pageHeight="450" math="0" shadow="0">
      <root>
        <mxCell id="0" />
        <mxCell id="1" parent="0" />
        <mxCell id="JIdOVKg0k5BsWk1WgtoK-1" value="&lt;div align=&quot;right&quot;&gt;&lt;font style=&quot;font-size: 18px;&quot;&gt;Qubit Allocation for Inter-Circuit Crosstalk&lt;/font&gt;&lt;/div&gt;&lt;div align=&quot;right&quot;&gt;&lt;font style=&quot;font-size: 18px;&quot;&gt;Countermeasure (QAICCC)&lt;br&gt;&lt;/font&gt;&lt;/div&gt;" style="verticalAlign=top;align=right;spacingTop=8;spacingLeft=2;spacingRight=12;shape=cube;size=10;direction=south;fontStyle=4;html=1;rounded=0;shadow=0;comic=0;labelBackgroundColor=none;strokeWidth=1;fontFamily=Verdana;fontSize=12;fillColor=none;" parent="1" vertex="1">
          <mxGeometry x="135" width="480" height="450" as="geometry" />
        </mxCell>
        <mxCell id="qjNmLmzCoTw4PF_jTeP7-27" value="" style="endArrow=classic;html=1;rounded=0;entryX=0.5;entryY=0;entryDx=0;entryDy=0;entryPerimeter=0;exitX=0.75;exitY=0.5;exitDx=0;exitDy=0;exitPerimeter=0;" parent="1" source="eMOk0DGojVkaVqaWsdeQ-18" target="eMOk0DGojVkaVqaWsdeQ-6" edge="1">
          <mxGeometry width="50" height="50" relative="1" as="geometry">
            <mxPoint x="265" y="290" as="sourcePoint" />
            <mxPoint x="265" y="800" as="targetPoint" />
            <Array as="points">
              <mxPoint x="365" y="330" />
              <mxPoint x="275" y="330" />
            </Array>
          </mxGeometry>
        </mxCell>
        <mxCell id="eMOk0DGojVkaVqaWsdeQ-4" value="&lt;div&gt;Crosstalk&lt;/div&gt;&lt;div&gt;analysis&lt;br&gt;&lt;/div&gt;" style="points=[[0.25,0,0],[0.5,0,0],[0.75,0,0],[1,0.25,0],[1,0.5,0],[1,0.75,0],[0.75,1,0],[0.5,1,0],[0.25,1,0],[0,0.75,0],[0,0.5,0],[0,0.25,0]];shape=mxgraph.bpmn.task;whiteSpace=wrap;rectStyle=rounded;size=10;html=1;taskMarker=abstract;strokeColor=#121212;fontSize=15;fillColor=#FFFFFF;" parent="1" vertex="1">
          <mxGeometry x="215" y="70" width="120" height="80" as="geometry" />
        </mxCell>
        <mxCell id="eMOk0DGojVkaVqaWsdeQ-5" value="&lt;div&gt;Allocation&lt;/div&gt;&lt;div&gt;algorithm&lt;br&gt;&lt;/div&gt;" style="points=[[0.25,0,0],[0.5,0,0],[0.75,0,0],[1,0.25,0],[1,0.5,0],[1,0.75,0],[0.75,1,0],[0.5,1,0],[0.25,1,0],[0,0.75,0],[0,0.5,0],[0,0.25,0]];shape=mxgraph.bpmn.task;whiteSpace=wrap;rectStyle=rounded;size=10;html=1;taskMarker=abstract;strokeColor=#121212;fontSize=15;fillColor=#FFFFFF;" parent="1" vertex="1">
          <mxGeometry x="335" y="208" width="120" height="82" as="geometry" />
        </mxCell>
        <mxCell id="eMOk0DGojVkaVqaWsdeQ-6" value="Transpilation" style="points=[[0.25,0,0],[0.5,0,0],[0.75,0,0],[1,0.25,0],[1,0.5,0],[1,0.75,0],[0.75,1,0],[0.5,1,0],[0.25,1,0],[0,0.75,0],[0,0.5,0],[0,0.25,0]];shape=mxgraph.bpmn.task;whiteSpace=wrap;rectStyle=rounded;size=10;html=1;taskMarker=abstract;strokeColor=#121212;fontSize=15;fillColor=#FFFFFF;" parent="1" vertex="1">
          <mxGeometry x="215" y="350" width="120" height="80" as="geometry" />
        </mxCell>
        <mxCell id="eMOk0DGojVkaVqaWsdeQ-13" value="" style="endArrow=classic;html=1;rounded=0;entryX=0;entryY=0.5;entryDx=0;entryDy=0;entryPerimeter=0;exitX=0.167;exitY=0.3;exitDx=0;exitDy=0;exitPerimeter=0;" parent="1" source="eMOk0DGojVkaVqaWsdeQ-9" target="eMOk0DGojVkaVqaWsdeQ-4" edge="1">
          <mxGeometry width="50" height="50" relative="1" as="geometry">
            <mxPoint x="175.32999999999993" y="94.68000000000006" as="sourcePoint" />
            <mxPoint x="389" y="185" as="targetPoint" />
          </mxGeometry>
        </mxCell>
        <mxCell id="eMOk0DGojVkaVqaWsdeQ-14" value="" style="endArrow=classic;html=1;rounded=0;entryX=0.5;entryY=0.6;entryDx=0;entryDy=0;entryPerimeter=0;exitX=1;exitY=0.5;exitDx=0;exitDy=0;exitPerimeter=0;" parent="1" source="eMOk0DGojVkaVqaWsdeQ-34" target="eMOk0DGojVkaVqaWsdeQ-9" edge="1">
          <mxGeometry width="50" height="50" relative="1" as="geometry">
            <mxPoint x="-41" y="133" as="sourcePoint" />
            <mxPoint x="172.67000000000007" y="135.3599999999999" as="targetPoint" />
          </mxGeometry>
        </mxCell>
        <mxCell id="eMOk0DGojVkaVqaWsdeQ-15" value="" style="endArrow=classic;html=1;rounded=0;exitX=1;exitY=0.5;exitDx=0;exitDy=0;exitPerimeter=0;entryX=0.5;entryY=0;entryDx=0;entryDy=0;entryPerimeter=0;" parent="1" source="eMOk0DGojVkaVqaWsdeQ-4" target="eMOk0DGojVkaVqaWsdeQ-5" edge="1">
          <mxGeometry width="50" height="50" relative="1" as="geometry">
            <mxPoint x="769" y="255" as="sourcePoint" />
            <mxPoint x="399" y="153" as="targetPoint" />
            <Array as="points">
              <mxPoint x="395" y="110" />
            </Array>
          </mxGeometry>
        </mxCell>
        <mxCell id="eMOk0DGojVkaVqaWsdeQ-16" value="error rates" style="text;html=1;align=center;verticalAlign=middle;resizable=0;points=[];autosize=1;strokeColor=none;fillColor=none;fontSize=15;" parent="1" vertex="1">
          <mxGeometry x="350" y="82" width="90" height="30" as="geometry" />
        </mxCell>
        <mxCell id="eMOk0DGojVkaVqaWsdeQ-17" value="connectivity" style="text;html=1;align=center;verticalAlign=middle;resizable=0;points=[];autosize=1;strokeColor=none;fillColor=none;fontSize=15;" parent="1" vertex="1">
          <mxGeometry x="171" y="163" width="100" height="30" as="geometry" />
        </mxCell>
        <mxCell id="eMOk0DGojVkaVqaWsdeQ-18" value="" style="line;strokeWidth=4;html=1;direction=south;rotation=90;" parent="1" vertex="1">
          <mxGeometry x="390" y="250" width="10" height="120" as="geometry" />
        </mxCell>
        <mxCell id="eMOk0DGojVkaVqaWsdeQ-19" value="&lt;div&gt;Noise&lt;/div&gt;&lt;div&gt;reduction&lt;br&gt;&lt;/div&gt;" style="points=[[0.25,0,0],[0.5,0,0],[0.75,0,0],[1,0.25,0],[1,0.5,0],[1,0.75,0],[0.75,1,0],[0.5,1,0],[0.25,1,0],[0,0.75,0],[0,0.5,0],[0,0.25,0]];shape=mxgraph.bpmn.task;whiteSpace=wrap;rectStyle=rounded;size=10;html=1;taskMarker=abstract;strokeColor=#121212;fontSize=15;fillColor=#FFFFFF;" parent="1" vertex="1">
          <mxGeometry x="455" y="350" width="120" height="80" as="geometry" />
        </mxCell>
        <mxCell id="eMOk0DGojVkaVqaWsdeQ-20" value="" style="endArrow=classic;html=1;rounded=0;entryX=0;entryY=0.5;entryDx=0;entryDy=0;entryPerimeter=0;exitX=1;exitY=0.5;exitDx=0;exitDy=0;exitPerimeter=0;" parent="1" source="eMOk0DGojVkaVqaWsdeQ-6" target="eMOk0DGojVkaVqaWsdeQ-19" edge="1">
          <mxGeometry width="50" height="50" relative="1" as="geometry">
            <mxPoint x="145" y="160" as="sourcePoint" />
            <mxPoint x="185" y="160" as="targetPoint" />
          </mxGeometry>
        </mxCell>
        <mxCell id="eMOk0DGojVkaVqaWsdeQ-22" value="" style="endArrow=classic;html=1;rounded=0;entryX=0.497;entryY=0.267;entryDx=0;entryDy=0;entryPerimeter=0;exitX=0.5;exitY=1;exitDx=0;exitDy=0;exitPerimeter=0;" parent="1" source="eMOk0DGojVkaVqaWsdeQ-5" target="eMOk0DGojVkaVqaWsdeQ-18" edge="1">
          <mxGeometry width="50" height="50" relative="1" as="geometry">
            <mxPoint x="145" y="120" as="sourcePoint" />
            <mxPoint x="185" y="120" as="targetPoint" />
          </mxGeometry>
        </mxCell>
        <mxCell id="eMOk0DGojVkaVqaWsdeQ-23" value="" style="endArrow=classic;html=1;rounded=0;entryX=0.5;entryY=0;entryDx=0;entryDy=0;entryPerimeter=0;exitX=0.25;exitY=0.5;exitDx=0;exitDy=0;exitPerimeter=0;" parent="1" source="eMOk0DGojVkaVqaWsdeQ-18" target="eMOk0DGojVkaVqaWsdeQ-19" edge="1">
          <mxGeometry width="50" height="50" relative="1" as="geometry">
            <mxPoint x="705" y="220" as="sourcePoint" />
            <mxPoint x="615" y="300" as="targetPoint" />
            <Array as="points">
              <mxPoint x="425" y="330" />
              <mxPoint x="515" y="330" />
            </Array>
          </mxGeometry>
        </mxCell>
        <mxCell id="eMOk0DGojVkaVqaWsdeQ-27" value="" style="line;strokeWidth=4;html=1;direction=south;" parent="1" vertex="1">
          <mxGeometry x="167" y="290" width="10" height="120" as="geometry" />
        </mxCell>
        <mxCell id="eMOk0DGojVkaVqaWsdeQ-28" value="" style="endArrow=classic;html=1;rounded=0;entryX=0;entryY=0.5;entryDx=0;entryDy=0;entryPerimeter=0;exitX=0.831;exitY=0.233;exitDx=0;exitDy=0;exitPerimeter=0;" parent="1" source="eMOk0DGojVkaVqaWsdeQ-27" target="eMOk0DGojVkaVqaWsdeQ-6" edge="1">
          <mxGeometry width="50" height="50" relative="1" as="geometry">
            <mxPoint x="181" y="160" as="sourcePoint" />
            <mxPoint x="225" y="160" as="targetPoint" />
          </mxGeometry>
        </mxCell>
        <mxCell id="eMOk0DGojVkaVqaWsdeQ-30" value="" style="endArrow=classic;html=1;rounded=0;entryX=0;entryY=0.75;entryDx=0;entryDy=0;entryPerimeter=0;exitX=0.175;exitY=0.233;exitDx=0;exitDy=0;exitPerimeter=0;" parent="1" source="eMOk0DGojVkaVqaWsdeQ-27" target="eMOk0DGojVkaVqaWsdeQ-5" edge="1">
          <mxGeometry width="50" height="50" relative="1" as="geometry">
            <mxPoint x="375" y="300" as="sourcePoint" />
            <mxPoint x="285" y="380" as="targetPoint" />
            <Array as="points">
              <mxPoint x="255" y="311" />
              <mxPoint x="255" y="270" />
            </Array>
          </mxGeometry>
        </mxCell>
        <mxCell id="eMOk0DGojVkaVqaWsdeQ-31" value="sizes" style="text;html=1;align=center;verticalAlign=middle;resizable=0;points=[];autosize=1;strokeColor=none;fillColor=none;fontSize=15;" parent="1" vertex="1">
          <mxGeometry x="171" y="283" width="60" height="30" as="geometry" />
        </mxCell>
        <mxCell id="eMOk0DGojVkaVqaWsdeQ-32" value="" style="endArrow=classic;html=1;rounded=0;entryX=0.497;entryY=0.5;entryDx=0;entryDy=0;entryPerimeter=0;" parent="1" source="eMOk0DGojVkaVqaWsdeQ-35" target="eMOk0DGojVkaVqaWsdeQ-27" edge="1">
          <mxGeometry width="50" height="50" relative="1" as="geometry">
            <mxPoint x="-25" y="350" as="sourcePoint" />
            <mxPoint x="179" y="200" as="targetPoint" />
          </mxGeometry>
        </mxCell>
        <mxCell id="eMOk0DGojVkaVqaWsdeQ-34" value="" style="strokeWidth=2;html=1;shape=mxgraph.flowchart.start_2;whiteSpace=wrap;fillColor=#000000;" parent="1" vertex="1">
          <mxGeometry x="85" y="140" width="20" height="20" as="geometry" />
        </mxCell>
        <mxCell id="eMOk0DGojVkaVqaWsdeQ-36" value="" style="endArrow=classic;html=1;rounded=0;entryX=0.497;entryY=0.5;entryDx=0;entryDy=0;entryPerimeter=0;exitX=0.5;exitY=0;exitDx=0;exitDy=0;exitPerimeter=0;" parent="1" source="eMOk0DGojVkaVqaWsdeQ-35" target="eMOk0DGojVkaVqaWsdeQ-35" edge="1">
          <mxGeometry width="50" height="50" relative="1" as="geometry">
            <mxPoint x="-25" y="350" as="sourcePoint" />
            <mxPoint x="170" y="350" as="targetPoint" />
          </mxGeometry>
        </mxCell>
        <mxCell id="eMOk0DGojVkaVqaWsdeQ-35" value="" style="strokeWidth=2;html=1;shape=mxgraph.flowchart.start_2;whiteSpace=wrap;fillColor=#000000;" parent="1" vertex="1">
          <mxGeometry x="81" y="340" width="20" height="20" as="geometry" />
        </mxCell>
        <mxCell id="eMOk0DGojVkaVqaWsdeQ-39" value="" style="endArrow=classic;html=1;rounded=0;exitX=1;exitY=0.5;exitDx=0;exitDy=0;exitPerimeter=0;entryX=0.5;entryY=0;entryDx=0;entryDy=0;" parent="1" source="eMOk0DGojVkaVqaWsdeQ-19" target="eMOk0DGojVkaVqaWsdeQ-41" edge="1">
          <mxGeometry width="50" height="50" relative="1" as="geometry">
            <mxPoint x="183" y="400" as="sourcePoint" />
            <mxPoint x="645" y="400" as="targetPoint" />
          </mxGeometry>
        </mxCell>
        <mxCell id="eMOk0DGojVkaVqaWsdeQ-41" value="" style="ellipse;html=1;shape=endState;fillColor=#000000;strokeColor=#000000;fontSize=15;direction=north;" parent="1" vertex="1">
          <mxGeometry x="655" y="370" width="40" height="40" as="geometry" />
        </mxCell>
        <mxCell id="eMOk0DGojVkaVqaWsdeQ-43" value="platform" style="text;html=1;align=center;verticalAlign=middle;resizable=0;points=[];autosize=1;strokeColor=none;fillColor=none;fontSize=15;" parent="1" vertex="1">
          <mxGeometry x="11" y="165" width="80" height="30" as="geometry" />
        </mxCell>
        <mxCell id="eMOk0DGojVkaVqaWsdeQ-44" value="user circuits" style="text;html=1;align=center;verticalAlign=middle;resizable=0;points=[];autosize=1;strokeColor=none;fillColor=none;fontSize=15;" parent="1" vertex="1">
          <mxGeometry x="1" y="362" width="100" height="30" as="geometry" />
        </mxCell>
        <mxCell id="eMOk0DGojVkaVqaWsdeQ-45" value="final circuits" style="text;html=1;align=center;verticalAlign=middle;resizable=0;points=[];autosize=1;strokeColor=none;fillColor=none;fontSize=15;" parent="1" vertex="1">
          <mxGeometry x="625" y="340" width="100" height="30" as="geometry" />
        </mxCell>
        <mxCell id="eMOk0DGojVkaVqaWsdeQ-46" value="qubit allocations" style="text;html=1;align=center;verticalAlign=middle;resizable=0;points=[];autosize=1;strokeColor=none;fillColor=none;fontSize=15;" parent="1" vertex="1">
          <mxGeometry x="330" y="330" width="130" height="30" as="geometry" />
        </mxCell>
        <mxCell id="eMOk0DGojVkaVqaWsdeQ-48" value="transpiled circuits" style="text;html=1;align=center;verticalAlign=middle;resizable=0;points=[];autosize=1;strokeColor=none;fillColor=none;fontSize=15;" parent="1" vertex="1">
          <mxGeometry x="325" y="390" width="140" height="30" as="geometry" />
        </mxCell>
        <mxCell id="eMOk0DGojVkaVqaWsdeQ-49" value="" style="sketch=0;outlineConnect=0;fontColor=#232F3E;gradientColor=none;fillColor=#000000;strokeColor=none;dashed=0;verticalLabelPosition=bottom;verticalAlign=top;align=center;html=1;fontSize=12;fontStyle=0;aspect=fixed;pointerEvents=1;shape=mxgraph.aws4.documents;" parent="1" vertex="1">
          <mxGeometry x="32.94999999999999" y="318" width="36.1" height="44" as="geometry" />
        </mxCell>
        <mxCell id="eMOk0DGojVkaVqaWsdeQ-50" value="" style="sketch=0;outlineConnect=0;fontColor=#232F3E;gradientColor=none;fillColor=#000000;strokeColor=none;dashed=0;verticalLabelPosition=bottom;verticalAlign=top;align=center;html=1;fontSize=12;fontStyle=0;aspect=fixed;pointerEvents=1;shape=mxgraph.aws4.documents;" parent="1" vertex="1">
          <mxGeometry x="655" y="296" width="36.1" height="44" as="geometry" />
        </mxCell>
        <mxCell id="eMOk0DGojVkaVqaWsdeQ-55" value="" style="sketch=0;dashed=0;connectable=0;html=1;fillColor=#757575;strokeColor=none;shape=mxgraph.gcp2.circuit_board;part=1;" parent="1" vertex="1">
          <mxGeometry x="26" y="120" width="50" height="45" as="geometry" />
        </mxCell>
        <mxCell id="qd8Z9BV7FsohcCPeds0F-2" value="&lt;font style=&quot;font-size: 12px;&quot;&gt;Step 1&lt;br&gt;&lt;/font&gt;" style="points=[[0.25,0,0],[0.5,0,0],[0.75,0,0],[1,0.25,0],[1,0.5,0],[1,0.75,0],[0.75,1,0],[0.5,1,0],[0.25,1,0],[0,0.75,0],[0,0.5,0],[0,0.25,0]];shape=mxgraph.bpmn.task;whiteSpace=wrap;rectStyle=rounded;size=10;html=1;taskMarker=abstract;strokeColor=#121212;fontSize=15;fillColor=#FFFFFF;" parent="1" vertex="1">
          <mxGeometry x="215" y="70" width="38" height="20" as="geometry" />
        </mxCell>
        <mxCell id="qd8Z9BV7FsohcCPeds0F-3" value="&lt;font style=&quot;font-size: 12px;&quot;&gt;Step 2&lt;br&gt;&lt;/font&gt;" style="points=[[0.25,0,0],[0.5,0,0],[0.75,0,0],[1,0.25,0],[1,0.5,0],[1,0.75,0],[0.75,1,0],[0.5,1,0],[0.25,1,0],[0,0.75,0],[0,0.5,0],[0,0.25,0]];shape=mxgraph.bpmn.task;whiteSpace=wrap;rectStyle=rounded;size=10;html=1;taskMarker=abstract;strokeColor=#121212;fontSize=15;fillColor=#FFFFFF;" parent="1" vertex="1">
          <mxGeometry x="335" y="208" width="38" height="20" as="geometry" />
        </mxCell>
        <mxCell id="qd8Z9BV7FsohcCPeds0F-4" value="&lt;font style=&quot;font-size: 12px;&quot;&gt;Step 3&lt;br&gt;&lt;/font&gt;" style="points=[[0.25,0,0],[0.5,0,0],[0.75,0,0],[1,0.25,0],[1,0.5,0],[1,0.75,0],[0.75,1,0],[0.5,1,0],[0.25,1,0],[0,0.75,0],[0,0.5,0],[0,0.25,0]];shape=mxgraph.bpmn.task;whiteSpace=wrap;rectStyle=rounded;size=10;html=1;taskMarker=abstract;strokeColor=#121212;fontSize=15;fillColor=#FFFFFF;" parent="1" vertex="1">
          <mxGeometry x="215" y="350" width="38" height="20" as="geometry" />
        </mxCell>
        <mxCell id="qd8Z9BV7FsohcCPeds0F-5" value="&lt;font style=&quot;font-size: 12px;&quot;&gt;Step 4&lt;br&gt;&lt;/font&gt;" style="points=[[0.25,0,0],[0.5,0,0],[0.75,0,0],[1,0.25,0],[1,0.5,0],[1,0.75,0],[0.75,1,0],[0.5,1,0],[0.25,1,0],[0,0.75,0],[0,0.5,0],[0,0.25,0]];shape=mxgraph.bpmn.task;whiteSpace=wrap;rectStyle=rounded;size=10;html=1;taskMarker=abstract;strokeColor=#121212;fontSize=15;fillColor=#FFFFFF;" parent="1" vertex="1">
          <mxGeometry x="455" y="350" width="38" height="20" as="geometry" />
        </mxCell>
        <mxCell id="Zg2dywJsqLNB15DvLQJ1-1" value="" style="endArrow=classic;html=1;rounded=0;exitX=0.842;exitY=0.3;exitDx=0;exitDy=0;exitPerimeter=0;" parent="1" source="eMOk0DGojVkaVqaWsdeQ-9" edge="1">
          <mxGeometry width="50" height="50" relative="1" as="geometry">
            <mxPoint x="170" y="190" as="sourcePoint" />
            <mxPoint x="335" y="229" as="targetPoint" />
            <Array as="points">
              <mxPoint x="255" y="190" />
              <mxPoint x="255" y="230" />
            </Array>
          </mxGeometry>
        </mxCell>
        <mxCell id="Zg2dywJsqLNB15DvLQJ1-2" value="" style="endArrow=classic;html=1;rounded=0;entryX=0;entryY=0.5;entryDx=0;entryDy=0;entryPerimeter=0;exitX=0.55;exitY=0.5;exitDx=0;exitDy=0;exitPerimeter=0;" parent="1" source="Zg2dywJsqLNB15DvLQJ1-3" target="eMOk0DGojVkaVqaWsdeQ-5" edge="1">
          <mxGeometry width="50" height="50" relative="1" as="geometry">
            <mxPoint x="115" y="250" as="sourcePoint" />
            <mxPoint x="225" y="105" as="targetPoint" />
          </mxGeometry>
        </mxCell>
        <mxCell id="Zg2dywJsqLNB15DvLQJ1-3" value="" style="strokeWidth=2;html=1;shape=mxgraph.flowchart.start_2;whiteSpace=wrap;fillColor=#000000;direction=south;" parent="1" vertex="1">
          <mxGeometry x="85" y="239" width="20" height="20" as="geometry" />
        </mxCell>
        <mxCell id="eMOk0DGojVkaVqaWsdeQ-9" value="" style="line;strokeWidth=4;html=1;direction=south;" parent="1" vertex="1">
          <mxGeometry x="169" y="90" width="10" height="120" as="geometry" />
        </mxCell>
        <mxCell id="Zg2dywJsqLNB15DvLQJ1-10" value="(eventually)&lt;br&gt;trusted users" style="text;html=1;align=center;verticalAlign=middle;resizable=0;points=[];autosize=1;strokeColor=none;fillColor=none;fontSize=15;" parent="1" vertex="1">
          <mxGeometry y="260" width="110" height="50" as="geometry" />
        </mxCell>
        <mxCell id="Zg2dywJsqLNB15DvLQJ1-11" value="" style="sketch=0;outlineConnect=0;fontColor=#232F3E;gradientColor=none;fillColor=#000000;strokeColor=none;dashed=0;verticalLabelPosition=bottom;verticalAlign=top;align=center;html=1;fontSize=12;fontStyle=0;aspect=fixed;pointerEvents=1;shape=mxgraph.aws4.documents;" parent="1" vertex="1">
          <mxGeometry x="36.94999999999999" y="222" width="36.1" height="44" as="geometry" />
        </mxCell>
      </root>
    </mxGraphModel>
  </diagram>
</mxfile>
